<svg xmlns="http://www.w3.org/2000/svg" width="89" height="80" viewBox="0 0 89 80" fill="none">
  <path d="M44.0466 68.8955C44.0466 65.7272 45.9545 63.1886 48.3347 63.1886C50.7112 63.1886 52.6154 65.7272 52.6154 68.8955C52.6173 69.6459 52.5079 70.3894 52.2936 71.0832C52.0792 71.7771 51.764 72.4075 51.3662 72.9384C50.9683 73.4692 50.4957 73.89 49.9754 74.1764C49.4552 74.4628 48.8976 74.6092 48.3347 74.6073C47.7715 74.6105 47.2134 74.4652 46.6926 74.1797C46.1717 73.8941 45.6983 73.4741 45.2998 72.9436C44.9012 72.4132 44.5853 71.7828 44.3702 71.0889C44.1551 70.395 44.0452 69.6463 44.0466 68.8955ZM61.4793 68.9004C61.4793 65.7272 63.3872 63.1837 65.7637 63.1837C68.1402 63.1837 70.048 65.7272 70.048 68.8955C70.048 72.0638 68.1402 74.6073 65.7674 74.6073C65.2042 74.6105 64.6461 74.4652 64.1252 74.1797C63.6044 73.8941 63.131 73.4741 62.7324 72.9436C62.3339 72.4132 62.0179 71.7828 61.8029 71.0889C61.5878 70.395 61.4778 69.6512 61.4793 68.9004ZM21.0712 68.9004C21.0712 65.7272 22.9791 63.1837 25.3556 63.1837C27.7321 63.1837 29.6363 65.7272 29.6363 68.8955C29.6363 72.0638 27.7321 74.6073 25.3556 74.6073C24.7927 74.6099 24.235 74.4641 23.7146 74.1783C23.1942 73.8924 22.7212 73.4722 22.3231 72.9419C21.9249 72.4115 21.6093 71.7814 21.3945 71.0878C21.1796 70.3942 21.0698 69.6508 21.0712 68.9004ZM3.63857 68.9004C3.63857 65.7272 5.54642 63.1837 7.92293 63.1837C10.2994 63.1837 12.2073 65.7272 12.2073 68.8955C12.2092 69.6463 12.0998 70.3902 11.8851 71.0844C11.6705 71.7785 11.355 72.4092 10.9568 72.9401C10.5586 73.471 10.0855 73.8917 9.56479 74.1778C9.04411 74.4639 8.48611 74.6099 7.92293 74.6073C7.36038 74.6092 6.80308 74.4629 6.28306 74.1768C5.76305 73.8907 5.29057 73.4704 4.89278 72.9401C4.495 72.4098 4.17974 71.7799 3.96513 71.0866C3.75053 70.3934 3.63711 69.6504 3.63857 68.9004ZM38.884 58.8052H35.1569V78.7939H38.884V58.8052ZM12.1778 78.7939H15.9049V58.8052H12.1778V60.409C10.8786 59.2036 9.33234 58.5611 7.74949 58.569C3.46144 58.569 0 63.1837 0 68.9004C0 74.6466 3.46144 79.2269 7.74949 79.2269C9.39165 79.2269 10.9157 78.5627 12.1778 77.3869V78.7939ZM70.0185 78.7939H73.7457V58.8052H70.0185V60.409C68.7193 59.2036 67.1731 58.5611 65.5902 58.569C61.3022 58.569 57.8407 63.1837 57.8407 68.9004C57.8373 70.2582 58.0355 71.6035 58.4237 72.8587C58.812 74.1139 59.3828 75.2543 60.1031 76.2142C60.8235 77.1741 61.6791 77.9345 62.6209 78.4515C63.5626 78.9686 64.5718 79.2321 65.5902 79.2269C67.2324 79.2269 68.7565 78.5627 70.0185 77.3869V78.7939ZM75.1258 72.2999C75.2439 76.3341 77.827 79.1875 82.1372 79.1875C85.6614 79.1875 88.5656 77.1508 88.5656 72.6541C88.5656 69.5252 87.2445 67.6852 84.1927 66.8981L81.8162 66.2782C80.2884 65.8846 79.233 65.4911 79.233 64.2808C79.233 62.9525 80.2589 62.3621 81.5505 62.3621C83.4325 62.3621 84.1927 63.6167 84.2517 65.1024H88.0084C87.8018 61.1912 85.4548 58.569 81.6686 58.569C77.768 58.569 75.4468 61.4225 75.4468 65.1418C75.4468 69.6777 78.2071 70.4206 80.5837 71.011L82.5506 71.4783C83.9602 71.8326 84.5765 72.3786 84.5765 73.4757C84.5765 74.4548 83.8717 75.4289 82.1963 75.4289C79.7607 75.4289 78.971 73.7463 78.9415 72.2999H75.1258ZM29.6104 51.9963V60.409C28.3113 59.2036 26.765 58.5611 25.1822 58.569C20.8941 58.569 17.4327 63.1837 17.4327 68.9004C17.4327 74.6466 20.8941 79.2269 25.1822 79.2269C26.8206 79.2269 28.3484 78.5627 29.6104 77.3869V78.7939H33.3376V51.9963H29.6104ZM52.5858 51.9963V60.409C51.2867 59.2036 49.7404 58.5611 48.1576 58.569C43.8732 58.569 40.4081 63.1837 40.4081 68.9004C40.4047 70.2582 40.6028 71.6035 40.9911 72.8587C41.3794 74.1139 41.9501 75.2543 42.6705 76.2142C43.3908 77.1741 44.2465 77.9345 45.1882 78.4515C46.1299 78.9686 47.1391 79.2321 48.1576 79.2269C49.7997 79.2269 51.3238 78.5627 52.5858 77.3869V78.7939H56.313V51.9963H52.5858ZM9.68318 46.0927L12.2073 51.9963H29.6104L22.7134 36.1106L9.68687 46.0878L9.68318 46.0927ZM38.884 56.9652V51.9963H52.5858L37.9725 18.2718L24.9128 28.2489L35.1569 51.9963V56.9652H38.884ZM58.136 51.9963H66.8504H75.5649L53.0287 0L39.9985 10.0165L58.136 51.9963Z" fill="#0F0909"/>
</svg>