<svg xmlns="http://www.w3.org/2000/svg" width="127" height="75" viewBox="0 0 127 75" fill="none">
  <rect x="27" y="0.000488281" width="100" height="74.1703" rx="5" fill="#CAEDCC"/>
  <path d="M50.6005 0.000488605C52.9218 -2.63287e-05 55.1576 0.61451 56.8597 1.72091C58.5618 2.8273 59.6044 4.34378 59.7785 5.96636L59.8015 6.45007V19.3492H73.6031C75.9244 19.3487 78.1602 19.9633 79.8623 21.0697C81.5644 22.1761 82.607 23.6925 82.7811 25.3151L82.8041 25.7988V51.5972H87.4046C88.5772 51.5981 89.705 51.9128 90.5576 52.4771C91.4103 53.0413 91.9234 53.8125 91.9921 54.633C92.0608 55.4535 91.68 56.2614 90.9274 56.8917C90.1748 57.522 89.1072 57.9271 87.9429 58.0242L87.4046 58.0468H4.59541C3.42284 58.0459 2.29501 57.7311 1.44237 57.1669C0.589729 56.6026 0.0766314 55.8315 0.00791304 55.011C-0.0608053 54.1904 0.320043 53.3825 1.07264 52.7522C1.82524 52.1219 2.89278 51.7168 4.05715 51.6198L4.59541 51.5972H9.19592V6.45007C9.19519 4.82292 10.0719 3.2557 11.6503 2.06259C13.2287 0.869476 15.3921 0.138649 17.7069 0.0166129L18.3969 0.000488605H50.6005ZM73.6031 25.7988H59.8015V51.5972H73.6031V25.7988ZM50.6005 6.45007H18.3969V51.5972H50.6005V6.45007ZM41.3995 38.698V45.1476H27.598V38.698H41.3995ZM41.3995 25.7988V32.2484H27.598V25.7988H41.3995ZM41.3995 12.8997V19.3492H27.598V12.8997H41.3995Z" fill="black" fill-opacity="0.99"/>
</svg>