<svg xmlns="http://www.w3.org/2000/svg" width="84" height="73" viewBox="0 0 84 73" fill="none">
  <path d="M80.9901 20.5456L60.2302 3.35189C60.1099 3.24941 59.975 3.18326 59.8345 3.15787C59.694 3.13247 59.5512 3.14842 59.4156 3.20465C59.28 3.26088 59.1547 3.35608 59.0483 3.48387C58.9418 3.61166 58.8565 3.76909 58.7982 3.94559L53.9323 19.5529L63.8101 27.6083C64.0926 27.8283 64.3274 28.1465 64.4908 28.5307C64.6542 28.9148 64.7402 29.3512 64.7402 29.7955C64.7402 30.2398 64.6542 30.6763 64.4908 31.0604C64.3274 31.4446 64.0926 31.7628 63.8101 31.9827L45.2676 46.8966L37.3884 71.9462C37.3411 72.02 37.3077 72.1083 37.291 72.2037C37.2744 72.299 37.275 72.3985 37.2928 72.4934C37.3106 72.5884 37.345 72.676 37.3932 72.7486C37.4413 72.8213 37.5017 72.8768 37.5691 72.9104C37.6499 72.9505 37.7377 72.9561 37.8209 72.9264C37.9041 72.8967 37.9787 72.8331 38.0348 72.7442L51.6384 61.5113L57.0083 72.0507C57.1259 72.2933 57.2853 72.4926 57.4727 72.6309C57.66 72.7692 57.8693 72.8424 58.0822 72.8439H70.9698C71.2049 72.8441 71.4355 72.7555 71.6361 72.5878C71.8366 72.4202 71.9994 72.1801 72.1064 71.894C72.2162 71.6084 72.2682 71.288 72.2572 70.9657C72.2462 70.6435 72.1726 70.331 72.0438 70.0606L63.3096 51.765L80.9935 37.1504C82.999 35.4927 84 33.6356 84 31.5838V26.1169C84 24.0603 82.999 22.2032 80.9901 20.5456ZM46.0531 0.169625L3.5219 36.7514C1.51646 38.4043 0.539811 40.2614 0.584994 42.3132V47.8845C0.633653 49.9364 1.63811 51.7603 3.59488 53.3466L24.6433 69.9514C24.7681 70.0512 24.9074 70.1125 25.0515 70.1312C25.1955 70.1498 25.3407 70.1252 25.4771 70.0592C25.6135 69.9931 25.7376 69.8872 25.8409 69.7489C25.9442 69.6105 26.0242 69.4429 26.0752 69.2579L30.8021 53.6506L20.7784 45.8944C20.5247 45.7157 20.3057 45.4572 20.1395 45.14C19.9733 44.8229 19.8647 44.4564 19.8226 44.0706C19.766 43.5735 19.8199 43.0647 19.9773 42.61C20.1347 42.1552 20.3883 41.7755 20.7054 41.52L39.1088 26.1074L46.6961 0.858324C46.7267 0.740039 46.7297 0.611726 46.7048 0.490977C46.6799 0.370227 46.6283 0.262957 46.5571 0.183876C46.4857 0.105617 46.3977 0.0610164 46.3062 0.0567361C46.2148 0.0524558 46.1248 0.0887254 46.0496 0.160127L46.0531 0.169625Z" fill="#111111"/>
</svg>