<svg xmlns="http://www.w3.org/2000/svg" width="82" height="73" viewBox="0 0 82 73" fill="none">
  <path d="M2.79138 0.0592624C2.26243 0.0824329 1.76278 0.307897 1.39627 0.688797C1.02976 1.0697 0.824576 1.57674 0.823364 2.10454L0.823364 70.8932C0.823364 72.0276 1.74378 72.9452 2.88174 72.9452H30.6916C31.8296 72.9452 32.75 72.0276 32.75 70.8932V65.0677L34.9155 71.5405C35.0519 71.9497 35.3142 72.3056 35.6651 72.5578C36.0159 72.8099 36.4376 72.9455 36.8701 72.9452H59.529C59.9646 72.9448 60.3888 72.8066 60.7407 72.5506C61.0925 72.2946 61.3538 71.934 61.487 71.5205L61.6041 71.1535C61.738 72.1778 62.6082 72.9452 63.6457 72.9452H79.092C80.2299 72.9452 81.1503 72.0276 81.1503 70.8932V23.6684C81.1506 23.2217 81.0047 22.7871 80.7346 22.4306C80.4646 22.0741 80.0853 21.8152 79.6542 21.6932L65.2389 17.5893C64.7442 17.4473 64.214 17.4954 63.7531 17.7239C63.2921 17.9524 62.9338 18.3448 62.7488 18.8238L56.4331 35.196V16.6784C56.4349 16.2328 56.2912 15.7988 56.0237 15.4418C55.7562 15.0849 55.3795 14.8244 54.9504 14.6998L43.6209 11.4301C43.3143 11.341 42.9911 11.3243 42.6769 11.3813C42.3627 11.4383 42.0661 11.5674 41.8105 11.7583C41.555 11.9493 41.3476 12.1969 41.2046 12.4816C41.0616 12.7663 40.9871 13.0802 40.9868 13.3986V33.9181L31.5852 8.96105C31.4717 8.66053 31.289 8.39076 31.0518 8.17345C30.8147 7.95613 30.5296 7.79735 30.2197 7.70986L3.44403 0.129329C3.23164 0.0713202 3.01129 0.0476638 2.79138 0.0592624ZM2.88174 2.10454L29.6574 9.68508L43.0452 45.2255V13.3953L54.3747 16.6784V46.2565L64.6699 19.5645L79.092 23.6717V70.8966H63.6457V62.6788H69.8209V39.0697L59.5256 70.8999H36.8667L21.4239 24.6927V61.6545H30.695V70.8966H2.88174V2.10454ZM4.94012 4.82713V68.8346H28.6366V63.7064H21.4205C20.8746 63.7064 20.3511 63.4902 19.965 63.1054C19.579 62.7206 19.3622 62.1987 19.3622 61.6545V24.6927C19.3689 22.3638 22.6388 21.84 23.3785 24.0454L38.3528 68.8346H58.0229L67.8629 38.4357C68.5825 36.2069 71.8826 36.7241 71.8793 39.0697V62.6754C71.8793 63.8098 70.9588 64.7274 69.8209 64.7307H65.7041V68.8346H77.0336V25.2132L65.9217 22.0535L56.2958 46.9905C55.4758 49.1092 52.3196 48.5253 52.3129 46.2565V18.2199L45.1036 16.1345V45.2255C45.1036 47.511 41.924 48.0849 41.1207 45.9495L28.091 11.37L4.94012 4.82713ZM23.4823 37.348L30.9259 59.6025C28.4692 59.5691 25.9557 59.6025 23.4823 59.6025V37.348ZM67.7625 52.1287V60.6235H65.0113L67.7625 52.1287Z" fill="#111111"/>
</svg>