<svg xmlns="http://www.w3.org/2000/svg" width="74" height="73" viewBox="0 0 74 73" fill="none">
  <path d="M73.5532 41.2423C72.0909 46.0895 67.2133 50.6387 61.3609 51.583C62.3053 53.0889 62.7379 54.9525 62.5094 57.02C61.8757 62.6327 56.657 67.1536 51.0604 67.2133C47.2735 67.2415 42.1401 65.5567 38.5238 59.6773C35.2822 54.4505 34.8222 46.146 35.0507 43.6361C31.0932 47.8025 28.6255 51.8497 27.4495 54.6545C24.8112 61.0076 23.8058 68.7474 23.8637 72.3805C23.8637 72.3805 23.3762 72.8542 22.9193 72.9452C21.4569 72.6785 20.1926 72.1169 19.2451 71.2604C18.0996 70.1937 17.8406 69.1898 17.8406 69.1898C19.5894 60.1793 22.3739 54.5697 26.5325 48.157C32.126 39.4979 40.76 34.1519 51.0025 30.933C58.4057 28.5988 66.0952 28.0968 71.3719 32.7056C74.2143 35.1276 74.3849 38.6132 73.5532 41.2423ZM29.9477 36.4578C28.1959 39.4697 23.4067 44.3169 19.6198 46.8268C11.7292 52.0254 6.05042 52.3799 3.20797 50.5194C2.88173 50.3143 2.5827 50.0665 2.31837 49.7822C0.109609 47.3884 0.484337 43.1341 3.06478 39.6485C4.32911 37.9355 5.96207 36.7245 7.54323 36.1629C6.30633 35.57 5.47461 34.3307 5.30401 32.5864C4.95974 29.1039 7.51277 24.5234 11.0407 22.6598C14.1391 21.0347 20.8232 19.4095 25.7282 26.9454C27.6506 29.8694 29.3719 34.0358 29.9477 36.4578ZM62.3632 4.7832C61.9367 0.44111 57.4277 -1.1558 52.4679 1.03093C50.116 2.06626 48.0504 3.80748 46.588 5.78715C46.8165 3.81062 46.2712 2.06626 44.8942 1.03093C42.1675 -1.00834 37.2046 0.497582 33.8199 4.28122C32.6439 5.61146 28.7991 10.399 28.5981 17.4267C28.5128 20.8244 29.9751 28.3604 34.7948 33.5589C47.6483 28.5674 54.5609 20.9154 57.1992 17.753C60.2428 14.0886 61.5315 10.8696 62.0768 8.50723C62.4789 6.64364 62.4211 5.31655 62.3632 4.7832Z" fill="#111111"/>
</svg>