<svg xmlns="http://www.w3.org/2000/svg" width="86" height="69" viewBox="0 0 86 69" fill="none">
  <path d="M24.5796 25.2172C24.5796 26.6333 24.6922 27.7767 24.8893 28.614C25.1144 29.456 25.3959 30.3746 25.79 31.3697C25.9308 31.6711 25.9871 31.9773 25.9871 32.2452C25.9871 32.628 25.8182 33.0107 25.4522 33.3934L23.6824 34.9962C23.4685 35.2059 23.214 35.3256 22.9505 35.3406C22.669 35.3406 22.3875 35.1493 22.1096 34.8048C21.7316 34.252 21.3934 33.6512 21.0997 33.0107C20.7852 32.277 20.494 31.5251 20.2271 30.7573C18.0385 34.269 15.2834 36.0248 11.9689 36.0248C9.61143 36.0248 7.72897 35.111 6.3532 33.2786C4.97742 31.4415 4.27721 29.0015 4.27721 25.9444C4.27721 22.7007 5.11816 20.0598 6.83173 18.0791C8.54529 16.0936 10.8183 15.0985 13.7106 15.0985C14.6677 15.0985 15.6494 15.2133 16.6874 15.4047C17.7289 15.5961 18.7985 15.9023 19.9175 16.2467V13.4575C19.9175 10.5535 19.4706 8.52976 18.598 7.34806C17.7007 6.16157 16.1842 5.59224 14.0238 5.59224C13.0386 5.59224 12.0252 5.74055 10.9872 6.08502C9.94922 6.42948 8.93586 6.85049 7.95417 7.38633C7.63409 7.5812 7.30498 7.7474 6.96895 7.88389C6.82424 7.94731 6.67397 7.98431 6.52209 7.99393C6.128 7.99393 5.93096 7.61119 5.93096 6.81222V4.94158C5.93096 4.3292 5.98726 3.86992 6.128 3.602C6.34055 3.25466 6.61067 2.98084 6.91617 2.80303C8.04147 2.04334 9.22827 1.4653 10.4524 1.08071C11.8845 0.582186 13.3583 0.339338 14.8366 0.358287C18.1793 0.358287 20.6212 1.39168 22.194 3.45369C23.7387 5.51091 24.5233 8.64458 24.5233 12.8451V25.2172H24.5796ZM13.1793 31.0252C14.1047 31.0252 15.0582 30.7956 16.0716 30.3363C17.1016 29.8523 18.0209 29.0113 18.7387 27.8963C19.1924 27.1911 19.5199 26.3527 19.6958 25.4468C19.8612 24.533 19.9773 23.4231 19.9773 22.1266V20.5238C19.1248 20.2413 18.2614 20.0241 17.3911 19.8732C16.5158 19.722 15.6344 19.6453 14.7521 19.6435C12.8697 19.6435 11.4939 20.1411 10.565 21.1745C9.63958 22.2031 9.19272 23.6527 9.19272 25.5616C9.19272 27.3557 9.52699 28.6953 10.2307 29.6091C10.9028 30.566 11.8845 31.0252 13.1793 31.0252ZM35.7336 35.1493C35.2269 35.1493 34.8892 35.0344 34.664 34.7665C34.4388 34.5369 34.2417 34.001 34.0728 33.2786L27.4754 3.7551C27.3471 3.26006 27.2621 2.74621 27.2221 2.22414C27.2221 1.61176 27.4473 1.26729 27.8942 1.26729H30.6492C31.1805 1.26729 31.5465 1.3869 31.74 1.65003C31.9687 1.87967 32.1376 2.41551 32.303 3.14271L37.025 28.4226L41.4056 3.14271C41.5464 2.37723 41.7153 1.87967 41.9369 1.65003C42.2745 1.36854 42.6676 1.23493 43.0629 1.26729H45.3078C45.8426 1.26729 46.2085 1.3869 46.4337 1.65003C46.6554 1.87967 46.856 2.41551 46.965 3.14271L51.402 28.7288L56.2612 3.14271C56.4301 2.37723 56.6272 1.87967 56.8242 1.65003C57.1501 1.36867 57.5332 1.2347 57.9185 1.26729H60.5328C60.9797 1.26729 61.2365 1.57827 61.2365 2.22414C61.2365 2.41551 61.2049 2.60688 61.1767 2.83652C61.1327 3.16297 61.0667 3.48326 60.9797 3.79337L54.2134 33.3121C54.0445 34.0776 53.8475 34.5704 53.6223 34.8C53.3052 35.0766 52.9322 35.2105 52.5561 35.1827H50.1388C49.6075 35.1827 49.2416 35.0679 49.0129 34.8C48.7912 34.5321 48.5942 34.0345 48.4851 33.269L44.129 8.6398L39.8011 33.2308C39.6604 33.9963 39.495 34.4938 39.2734 34.7617C39.0446 35.0296 38.6506 35.1445 38.1474 35.1445L35.7336 35.1493ZM71.8205 36.1779C70.3603 36.1779 68.9001 35.9482 67.4962 35.4937C66.0922 35.0344 64.9979 34.5369 64.2661 33.9628C63.8157 33.6231 63.5096 33.2403 63.397 32.8959C63.2873 32.5582 63.2298 32.1934 63.2281 31.8242V29.877C63.2281 29.0781 63.4533 28.6953 63.872 28.6953C64.0409 28.6953 64.2098 28.7336 64.3787 28.8101C64.5476 28.8867 64.8009 29.0398 65.0824 29.1929C66.0359 29.767 67.0739 30.2215 68.1717 30.5277C69.2942 30.8339 70.3885 30.987 71.5144 30.987C73.2808 30.987 74.6601 30.566 75.6136 29.7239C76.0707 29.3484 76.4466 28.8151 76.703 28.1782C76.9595 27.5413 77.0874 26.8234 77.0738 26.0975C77.0841 25.6058 77.0226 25.1163 76.8927 24.6572C76.7628 24.1981 76.5673 23.7786 76.3173 23.4231C75.8106 22.7007 74.8536 22.05 73.4778 21.4376L69.4068 19.7153C67.3554 18.8398 65.8389 17.5433 64.9135 15.8257C64.0078 14.2406 63.513 12.2928 63.5061 10.2856C63.5061 8.68286 63.7629 7.27151 64.2661 6.04674C64.7728 4.82676 65.4448 3.75509 66.2893 2.91785C67.1337 2.03755 68.0838 1.3869 69.2097 0.932395C70.3357 0.473108 71.5144 0.281738 72.7494 0.281738C73.3652 0.281738 74.0126 0.320012 74.6319 0.434834C75.2758 0.549656 75.8634 0.70275 76.4546 0.855846C77.0175 1.04722 77.5524 1.23859 78.0555 1.46345C78.5622 1.69309 78.9563 1.92273 79.2378 2.15238C79.5694 2.37934 79.8583 2.70668 80.0822 3.10922C80.2636 3.48074 80.3513 3.92233 80.3321 4.36748V6.16156C80.3321 6.96532 80.1069 7.38633 79.6846 7.38633C79.3108 7.32805 78.9488 7.17209 78.6185 6.92704C76.9217 5.90786 75.0827 5.40027 73.228 5.43914C71.627 5.43914 70.3603 5.77883 69.4912 6.50603C68.6186 7.23323 68.1717 8.33839 68.1717 9.90284C68.1717 10.9745 68.4532 11.8931 69.0162 12.6155C69.5757 13.3427 70.6136 14.0699 72.102 14.7206L76.0921 16.4333C78.1118 17.3136 79.5756 18.5384 80.4447 20.1028C81.3138 21.6673 81.736 23.4614 81.736 25.4468C81.736 27.0878 81.4827 28.5805 81.0076 29.877C80.5082 31.1844 79.8088 32.3312 78.9563 33.2403C78.0837 34.1972 77.0457 34.8813 75.8388 35.3789C74.5721 35.9099 73.2561 36.1779 71.8205 36.1779ZM77.1301 54.7407C67.8902 64.0221 54.4632 68.9451 42.9222 68.9451C26.7436 68.9451 12.1695 60.8119 1.1562 47.2916C0.287104 46.2248 1.07176 44.7704 2.11327 45.6124C14.0203 55.0038 28.7105 60.6971 43.9039 60.6971C54.1571 60.6971 65.4167 57.793 75.7825 51.8367C77.3272 50.8798 78.6466 53.2097 77.1301 54.7407ZM80.9795 48.7795C79.7972 46.7223 73.1682 47.7892 70.1633 48.2868C69.266 48.4399 69.1253 47.3682 69.9416 46.5644C75.2195 41.5266 83.8999 42.9763 84.9098 44.6555C85.9196 46.3778 84.6283 58.1758 79.6846 63.826C78.9281 64.7063 78.1963 64.247 78.5341 63.1035C79.66 59.324 82.1582 50.8081 80.9795 48.7795Z" fill="#111111"/>
</svg>