<svg xmlns="http://www.w3.org/2000/svg" width="71" height="79" viewBox="0 0 71 79" fill="none">
  <path d="M60.8864 0.056399H0.159914V13.0726H57.8548V13.0848C58.2502 13.0838 58.6418 13.1916 59.0073 13.4021C59.3728 13.6126 59.705 13.9217 59.9847 14.3116C60.2644 14.7016 60.4863 15.1647 60.6375 15.6745C60.7887 16.1843 60.8664 16.7307 60.866 17.2824V61.0172L60.8543 61.0457C60.8474 62.1559 60.5265 63.2173 59.9614 63.9989C59.3964 64.7804 58.6329 65.219 57.8373 65.2189H12.5025C10.8422 65.2189 9.48831 63.3461 9.48831 61.0132V43.3434C9.48831 41.0227 10.8422 39.1417 12.5025 39.1417H51.5143V26.1255H9.46205C8.2404 26.1239 7.03051 26.4584 5.90159 27.1098C4.77267 27.7613 3.74689 28.7169 2.88291 29.9221C2.01894 31.1272 1.33373 32.5582 0.866491 34.1333C0.399251 35.7083 0.159146 37.3964 0.159914 39.101V65.2515C0.160688 68.6932 1.14107 71.9935 2.88548 74.4268C4.62988 76.8601 6.99548 78.227 9.46205 78.227H60.8864C62.1081 78.2275 63.3179 77.8922 64.4466 77.2401C65.5754 76.588 66.601 75.6319 67.4649 74.4265C68.3287 73.2212 69.0139 71.7901 69.4813 70.2151C69.9486 68.6401 70.1889 66.9521 70.1886 65.2474V13.0319C70.1889 11.3274 69.9486 9.63959 69.4812 8.06482C69.0138 6.49005 68.3286 5.05925 67.4647 3.8542C66.6008 2.64915 65.5752 1.69349 64.4464 1.04184C63.3177 0.39019 62.108 0.055329 60.8864 0.056399Z" fill="#111111"/>
</svg>