<svg xmlns="http://www.w3.org/2000/svg" width="74" height="73" viewBox="0 0 74 73" fill="none">
  <path d="M33.7988 26.8432C33.7988 26.8432 29.8203 3.33361 15.1936 3.38828C5.33675 3.42472 1.48696 12.5813 8.63074 14.6404C8.63074 14.6404 0.158691 17.5954 0.158691 22.8313C0.158691 28.0701 13.5796 33.5853 33.7988 26.8432ZM39.8624 44.8345C39.8624 44.8345 42.7011 68.4959 57.3152 69.1033C67.1626 69.5133 71.4552 60.5389 64.4181 58.1579C64.4181 58.1579 73.0221 55.5916 73.2733 50.3618C73.5245 45.1291 60.3831 39.0125 39.8624 44.8345ZM28.3319 40.1271C28.3319 40.1271 4.68047 46.7782 6.50174 60.8183C7.72638 70.2756 17.5864 72.8722 18.8424 65.7686C18.8424 65.7686 22.8932 73.5404 28.2691 72.9087C33.6449 72.277 37.6894 58.7258 28.3319 40.1271ZM45.9888 32.6348C45.9888 32.6348 70.2525 28.5348 70.0421 14.3884C69.8977 4.8582 60.3894 1.22896 58.3357 8.15943C58.3357 8.15943 55.1956 0.0020037 49.7758 0.05667C44.3622 0.111336 38.8042 13.1523 45.9888 32.6348Z" fill="#111111"/>
</svg>