<svg xmlns="http://www.w3.org/2000/svg" width="64" height="73" viewBox="0 0 64 73" fill="none">
  <path d="M62.5949 46.7703C60.7365 44.4519 56.9255 43.1293 51.5389 43.1293C48.6597 43.1293 45.3173 43.4592 41.6948 44.2309C39.4754 41.6935 37.4543 38.9218 35.6564 35.95C34.2639 33.7405 33.0547 31.3131 31.9397 28.9916C34.0781 21.2614 35.0989 14.9659 35.0989 10.438C35.0989 5.35921 33.5206 0.0563965 28.9689 0.0563965C27.5764 0.0563965 26.1813 1.05223 25.438 2.48685C23.3964 6.79383 24.3256 16.1796 27.8539 25.4564C26.5259 30.2004 25.0389 34.8793 23.3964 39.4821C21.9097 43.6801 20.2372 47.9871 18.3788 51.9611C8.16304 56.822 1.56714 62.4547 0.823798 66.8675C0.546351 68.5262 1.00963 70.0728 2.03304 71.2865C2.40472 71.6195 3.70557 72.9452 5.933 72.9452C12.7121 72.9452 19.8655 59.9122 23.488 52.0731C26.2756 50.9684 29.0631 49.8636 31.8481 48.9798C34.7863 48.0311 37.7625 47.2574 40.7656 46.6614C47.9164 54.2795 54.2322 55.4963 57.3914 55.4963C61.2914 55.4963 62.6865 53.6167 63.1498 52.0731C63.9873 50.0815 63.4298 47.8751 62.5949 46.7703ZM58.8781 49.9757C58.5981 51.6312 57.203 52.736 55.2556 52.736C54.6981 52.736 54.2348 52.624 53.6747 52.515C50.1464 51.5192 46.8014 49.4217 43.4589 46.1075C46.0359 45.5893 48.6452 45.3312 51.2588 45.3357C53.2114 45.3357 54.8839 45.4446 55.9963 45.7776C57.2972 46.1075 59.3414 47.1033 58.8755 49.9726L58.8781 49.9757ZM39.1847 44.7849C36.5929 45.3623 34.0214 46.062 31.4764 46.8824C29.2568 47.5684 27.057 48.3416 24.8805 49.2008C26.0119 46.5954 27.0656 43.9434 28.0397 41.2497C29.1547 38.1564 30.0813 34.9541 31.0131 31.9729C31.9397 33.8494 32.9631 35.729 33.9839 37.3846C35.6529 39.9145 37.3873 42.3824 39.1847 44.7849ZM27.0189 3.70052C27.1831 3.30931 27.4344 2.97913 27.7454 2.74594C28.0565 2.51274 28.4154 2.38545 28.7831 2.37793C30.733 2.37793 31.1047 5.02623 31.1047 7.12681C31.1047 10.6589 30.1755 16.0706 28.5972 22.2541C25.9013 13.6402 25.7181 6.46396 27.0189 3.70052ZM16.8005 55.1633C12.063 64.4401 7.5113 70.1817 4.72637 70.1817C4.22387 70.1854 3.7344 69.9918 3.3339 69.6309C2.77639 68.9681 2.49633 68.1963 2.68216 67.3125C3.23967 63.9982 8.62632 59.3614 16.8005 55.1633Z" fill="#111111"/>
</svg>