<svg xmlns="http://www.w3.org/2000/svg" width="42" height="29" viewBox="0 0 42 29" fill="none">
  <g clip-path="url(#clip0_31_26)">
    <path d="M27.9849 6.1524C27.2711 6.21328 26.5988 6.41019 26.0486 6.71952L25.8611 5.75047C25.7421 5.13546 25.2863 4.57149 24.5813 4.16705C23.8763 3.76261 22.972 3.54627 22.0421 3.55964C21.1123 3.57302 20.2228 3.81516 19.5446 4.2395C18.8664 4.66383 18.4475 5.24038 18.3685 5.85825C17.7574 5.6526 17.0739 5.5618 16.3913 5.59558C15.7087 5.62937 15.0528 5.78648 14.494 6.05003C13.9352 6.31359 13.4946 6.67364 13.2195 7.09154C12.9444 7.50944 12.8452 7.9694 12.9326 8.42205L14.2497 15.2274L12.9428 14.1608C12.3386 13.6298 11.4429 13.2807 10.4527 13.1901C9.46244 13.0995 8.45878 13.2749 7.66249 13.6777C6.86621 14.0805 6.34252 14.6777 6.20665 15.338C6.07077 15.9982 6.33384 16.6675 6.93797 17.1984C12.6805 23.1582 15.733 25.5266 22.8473 24.9144C26.1245 24.6298 29.0986 23.4902 31.1171 21.7454C33.1357 20.0006 34.0339 17.7933 33.6147 15.6075L32.2048 8.3229C32.1415 7.99563 31.9821 7.67989 31.7358 7.39369C31.4894 7.1075 31.1609 6.85646 30.7691 6.65491C30.3772 6.45336 29.9297 6.30525 29.452 6.21903C28.9742 6.13281 28.4758 6.11017 27.9849 6.1524ZM31.8897 15.7559C32.2502 17.6367 31.4773 19.536 29.7404 21.0373C28.0035 22.5386 25.4445 23.5192 22.6247 23.7642C19.6059 24.0239 17.5701 23.707 15.5805 22.6699C13.3971 21.5373 11.2066 19.4846 8.38282 16.5537L8.34177 16.5153C8.01524 16.2301 7.87203 15.87 7.94366 15.5143C8.01529 15.1587 8.29588 14.8365 8.72372 14.6188C9.15155 14.4011 9.69158 14.3056 10.225 14.3534C10.7584 14.4011 11.2415 14.5882 11.5681 14.8735L11.5856 14.8885L14.8275 17.533C14.9469 17.6308 15.111 17.7001 15.2948 17.7301C15.4786 17.7602 15.672 17.7494 15.8459 17.6996C16.0197 17.6497 16.1643 17.5633 16.2579 17.4537C16.3515 17.344 16.3888 17.217 16.3643 17.0918L14.6576 8.27362C14.5887 7.91773 14.7347 7.55816 15.0634 7.27403C15.3921 6.9899 15.8767 6.80448 16.4104 6.75855C16.9442 6.71262 17.4835 6.80995 17.9096 7.02913C18.3357 7.24831 18.6138 7.57139 18.6827 7.92728L19.7958 13.6783C19.8253 13.8308 19.9445 13.9693 20.1271 14.0632C20.3097 14.1571 20.5409 14.1989 20.7696 14.1792C20.9984 14.1595 21.206 14.08 21.3469 13.9583C21.4878 13.8365 21.5503 13.6824 21.5208 13.5299L20.1109 6.24524C20.042 5.88935 20.188 5.52979 20.5167 5.24566C20.8455 4.96152 21.33 4.7761 21.8638 4.73017C22.3975 4.68424 22.9368 4.78158 23.3629 5.00076C23.789 5.21993 24.0671 5.54301 24.136 5.8989L25.5459 13.1835C25.5754 13.336 25.6946 13.4745 25.8773 13.5684C26.0599 13.6624 26.291 13.7041 26.5197 13.6844C26.7485 13.6647 26.9562 13.5852 27.097 13.4635C27.2379 13.3417 27.3005 13.1876 27.271 13.0351L26.4547 8.81768C26.3858 8.46178 26.5318 8.10222 26.8605 7.81809C27.1892 7.53395 27.6738 7.34853 28.2075 7.3026C28.7413 7.25667 29.2806 7.35401 29.7067 7.57319C30.1328 7.79236 30.4109 8.11544 30.4798 8.47133L31.8897 15.7559Z" fill="#4FAC52"/>
  </g>
  <defs>
    <clipPath id="clip0_31_26">
      <rect width="36.9369" height="24.993" fill="white" transform="matrix(0.996318 -0.0857289 0.190018 0.981781 0.0316772 3.6853)"/>
    </clipPath>
  </defs>
</svg>