<svg xmlns="http://www.w3.org/2000/svg" width="66" height="57" viewBox="0 0 66 57" fill="none">
  <path d="M60 41.5102V18.2753H18V41.5102H60ZM60 5.36694C61.5913 5.36694 63.1174 5.91093 64.2426 6.87924C65.3679 7.84756 66 9.16087 66 10.5303V41.5102C66 42.8796 65.3679 44.1929 64.2426 45.1613C63.1174 46.1296 61.5913 46.6736 60 46.6736H18C16.4087 46.6736 14.8826 46.1296 13.7574 45.1613C12.6321 44.1929 12 42.8796 12 41.5102V10.5303C12 9.16087 12.6321 7.84756 13.7574 6.87924C14.8826 5.91093 16.4087 5.36694 18 5.36694H21V0.203613H27V5.36694H51V0.203613H57V5.36694H60ZM49.59 26.1751L36.27 37.6377L28.23 30.7189L31.41 27.9823L36.27 32.1646L46.41 23.4386L49.59 26.1751ZM6 51.8369H48V57.0002H6C4.4087 57.0002 2.88258 56.4562 1.75736 55.4879C0.632141 54.5196 0 53.2063 0 51.8369V20.8569H6V51.8369Z" fill="#4FAC52"/>
</svg>