<svg xmlns="http://www.w3.org/2000/svg" width="151" height="75" viewBox="0 0 151 75" fill="none">
  <rect x="51" width="100" height="74.1703" rx="5" fill="#CAEDCC" fill-opacity="0.99"/>
  <path d="M68.6667 11.6093C68.6667 14.6882 66.858 17.6411 63.6387 19.8182C60.4193 21.9954 56.0529 23.2185 51.5 23.2185C46.9471 23.2185 42.5807 21.9954 39.3613 19.8182C36.142 17.6411 34.3333 14.6882 34.3333 11.6093C34.3333 8.53029 36.142 5.57743 39.3613 3.40027C42.5807 1.22311 46.9471 0 51.5 0C56.0529 0 60.4193 1.22311 63.6387 3.40027C66.858 5.57743 68.6667 8.53029 68.6667 11.6093ZM97.2778 19.3488C97.2778 21.4014 96.072 23.37 93.9258 24.8214C91.7795 26.2729 88.8686 27.0883 85.8333 27.0883C82.7981 27.0883 79.8871 26.2729 77.7409 24.8214C75.5946 23.37 74.3889 21.4014 74.3889 19.3488C74.3889 17.2961 75.5946 15.3275 77.7409 13.8761C79.8871 12.4247 82.7981 11.6093 85.8333 11.6093C88.8686 11.6093 91.7795 12.4247 93.9258 13.8761C96.072 15.3275 97.2778 17.2961 97.2778 19.3488ZM74.3889 46.437C74.3889 42.3317 71.9774 38.3946 67.6849 35.4917C63.3924 32.5888 57.5705 30.958 51.5 30.958C45.4295 30.958 39.6076 32.5888 35.3151 35.4917C31.0226 38.3946 28.6111 42.3317 28.6111 46.437V53.0463C28.6111 55.8077 30.8497 58.0463 33.6111 58.0463H69.3889C72.1503 58.0463 74.3889 55.8077 74.3889 53.0463V46.437ZM28.6111 19.3488C28.6111 21.4014 27.4054 23.37 25.2591 24.8214C23.1129 26.2729 20.2019 27.0883 17.1667 27.0883C14.1314 27.0883 11.2205 26.2729 9.07422 24.8214C6.92797 23.37 5.72222 21.4014 5.72222 19.3488C5.72222 17.2961 6.92797 15.3275 9.07422 13.8761C11.2205 12.4247 14.1314 11.6093 17.1667 11.6093C20.2019 11.6093 23.1129 12.4247 25.2591 13.8761C27.4054 15.3275 28.6111 17.2961 28.6111 19.3488ZM90.8333 58.0463C88.0719 58.0463 85.8333 55.8077 85.8333 53.0463V46.437C85.8365 44.9416 85.625 43.4554 85.2067 41.9985C84.2474 38.6581 85.8526 34.5881 89.2945 35.0705V35.0705C91.8587 35.4299 94.2676 36.1806 96.3375 37.2654C98.4074 38.3501 100.084 39.7403 101.238 41.3298C102.393 42.9193 102.995 44.6661 103 46.437V53.0463C103 55.8077 100.761 58.0463 98 58.0463H90.8333ZM13.7008 35.062C17.1483 34.5814 18.7519 38.6576 17.7921 42.0035C17.3747 43.4588 17.1636 44.9433 17.1667 46.437V53.0463C17.1667 55.8077 14.9281 58.0463 12.1667 58.0463H5C2.23858 58.0463 1.52051e-06 55.8077 1.52051e-06 53.0463V46.437C-0.00110134 44.6648 0.597763 42.916 1.7507 41.3245C2.90363 39.7331 4.58003 38.3412 6.65142 37.2557C8.72281 36.1702 11.1342 35.4198 13.7008 35.062V35.062Z" fill="black" fill-opacity="0.99"/>
</svg>