<svg xmlns="http://www.w3.org/2000/svg" width="65" height="63" viewBox="0 0 65 63" fill="none">
  <path d="M6.5 12.5745H0V56.1185C0 57.7683 0.684819 59.3506 1.90381 60.5171C3.12279 61.6837 4.77609 62.3391 6.5 62.3391H52V56.1185H6.5V12.5745ZM58.5 0.133301C60.2239 0.133301 61.8772 0.788681 63.0962 1.95527C64.3152 3.12185 65 4.70408 65 6.35388V43.6774C65 45.3272 64.3152 46.9094 63.0962 48.076C61.8772 49.2426 60.2239 49.8979 58.5 49.8979H19.5C17.7761 49.8979 16.1228 49.2426 14.9038 48.076C13.6848 46.9094 13 45.3272 13 43.6774V6.35388C13 4.70408 13.6848 3.12185 14.9038 1.95527C16.1228 0.788681 17.7761 0.133301 19.5 0.133301H58.5ZM48.75 15.6848C48.75 13.2101 47.7228 10.8367 45.8943 9.08683C44.0658 7.33695 41.5859 6.35388 39 6.35388C36.4141 6.35388 33.9342 7.33695 32.1057 9.08683C30.2772 10.8367 29.25 13.2101 29.25 15.6848C29.25 18.1595 30.2772 20.5328 32.1057 22.2827C33.9342 24.0326 36.4141 25.0156 39 25.0156C41.5859 25.0156 44.0658 24.0326 45.8943 22.2827C47.7228 20.5328 48.75 18.1595 48.75 15.6848ZM19.5 40.5671V43.6774H58.5V40.5671C58.5 34.3465 45.5 30.9252 39 30.9252C32.5 30.9252 19.5 34.3465 19.5 40.5671Z" fill="#4FAC52"/>
</svg>