<svg xmlns="http://www.w3.org/2000/svg" width="66" height="57" viewBox="0 0 66 57" fill="none">
  <path d="M0 11.6591C0 8.56691 1.11753 5.60137 3.10676 3.41487C5.09598 1.22836 7.79395 0 10.6071 0H55.3929C58.206 0 60.904 1.22836 62.8932 3.41487C64.8825 5.60137 66 8.56691 66 11.6591V45.3409C66 48.4331 64.8825 51.3986 62.8932 53.5851C60.904 55.7716 58.206 57 55.3929 57H10.6071C7.79395 57 5.09598 55.7716 3.10676 53.5851C1.11753 51.3986 0 48.4331 0 45.3409V11.6591ZM10.6071 5.18182C9.04426 5.18182 7.54539 5.86424 6.44026 7.07897C5.33514 8.29369 4.71429 9.94121 4.71429 11.6591V15.5455H61.2857V11.6591C61.2857 9.94121 60.6649 8.29369 59.5597 7.07897C58.4546 5.86424 56.9557 5.18182 55.3929 5.18182H10.6071ZM4.71429 45.3409C4.71429 47.0588 5.33514 48.7063 6.44026 49.921C7.54539 51.1358 9.04426 51.8182 10.6071 51.8182H55.3929C56.9557 51.8182 58.4546 51.1358 59.5597 49.921C60.6649 48.7063 61.2857 47.0588 61.2857 45.3409V20.7273H4.71429V45.3409ZM44.7857 36.2727H51.8571C52.4823 36.2727 53.0818 36.5457 53.5239 37.0316C53.9659 37.5175 54.2143 38.1765 54.2143 38.8636C54.2143 39.5508 53.9659 40.2098 53.5239 40.6957C53.0818 41.1816 52.4823 41.4545 51.8571 41.4545H44.7857C44.1606 41.4545 43.561 41.1816 43.119 40.6957C42.6769 40.2098 42.4286 39.5508 42.4286 38.8636C42.4286 38.1765 42.6769 37.5175 43.119 37.0316C43.561 36.5457 44.1606 36.2727 44.7857 36.2727Z" fill="#4FAC52"/>
</svg>